<?xml version="1.0" encoding="utf-8" ?><svg xmlns="http://www.w3.org/2000/svg" xmlns:xlink="http://www.w3.org/1999/xlink" width="200" height="200" viewBox="0 0 200 200"><path fill="white" d="M121.315 34.9153C121.544 34.984 121.781 35.1308 121.998 35.2469C122.88 36.9418 127.159 89.4707 127.034 92.9104C125.228 94.288 115.515 90.3969 114.217 93.1115L114.402 93.6242C116.269 94.8311 124.984 95.5606 127.52 95.8518C128.225 99.3988 130.25 128.733 129.686 130.69C129.146 132.559 124.296 134.893 122.537 135.826C109.583 142.696 94.851 141.469 81.3095 137.317C73.924 134.649 66.8043 131.296 60.0433 127.302C58.6022 126.435 55.4943 124.627 55.0885 122.994C55.4427 122.344 64.6011 120.876 66.1333 120.43C69.4501 119.442 72.6313 118.046 75.6039 116.274C82.422 112.184 89.7033 105.026 93.1564 97.8466C97.6336 88.538 97.8181 77.6999 100.26 67.8492C103.374 55.2843 109.814 41.7988 121.315 34.9153Z"/><path fill="white" d="M134.044 29.5485L134.233 29.5299C137.074 29.2775 141.469 32.8648 143.564 34.5584C152.431 41.7267 159.858 57.1181 160.678 68.4512C161.844 84.5698 156.482 97.5256 146.074 109.593C143.862 111.939 139.441 116.21 136.474 117.714C136.006 117.952 135.849 117.782 135.451 117.586C134.558 116.144 133.345 99.0697 133.082 96.0954L129.726 58.1297L128.204 41.5328C128.04 39.7574 127.397 33.9587 127.644 32.5194C128.71 30.8498 132.208 30.0444 134.044 29.5485Z"/><path fill="white" d="M59.3896 35.4335C60.6046 35.7787 61.0651 36.0966 61.3913 37.3928C62.2172 40.6746 62.77 44.0403 63.3773 47.37L66.3231 63.3286L71.0561 88.847C71.451 90.9787 74.3352 104.94 73.6198 105.98C70.5857 110.394 61.8092 113.201 56.5479 114.479C55.7697 114.152 55.0602 113.727 54.3273 113.31C49.7005 109.803 46.564 105.777 43.8561 100.687C37.6024 88.6706 36.2608 74.6952 40.1145 61.709C42.9062 52.5749 50.9774 39.9154 59.3896 35.4335Z"/><path fill="white" d="M116.899 156.506C122.454 156.152 127.241 160.374 127.582 165.93C127.924 171.485 123.69 176.263 118.133 176.591C112.596 176.918 107.838 172.702 107.497 167.164C107.157 161.627 111.363 156.86 116.899 156.506ZM117.624 172.091C120.666 172.037 123.099 169.547 123.084 166.504C123.069 163.461 120.611 160.995 117.568 160.971C115.564 160.955 113.707 162.018 112.706 163.754C111.705 165.49 111.716 167.631 112.734 169.357C113.752 171.083 115.62 172.127 117.624 172.091Z"/><path fill="white" d="M55.2543 170.033C57.0042 164.875 59.3199 156.798 61.5644 151.672C61.8542 151.01 65.7995 151.147 66.815 151.15C66.0502 152.87 65.6538 154.006 65.0837 155.807C62.673 162.442 60.3303 169.418 57.7633 175.962C56.0257 176.056 54.1606 176.006 52.4112 175.99C49.3343 167.922 46.4026 159.421 43.4855 151.268C44.9543 151.149 47.1937 151.206 48.7191 151.198C51.0556 157.425 52.8567 163.803 55.2543 170.033Z"/><path fill="white" d="M78.7254 157.248C84.1709 157.262 89.6164 157.241 95.0616 157.186L94.9338 160.52C93.871 162.47 86.2956 170.067 84.3765 171.777C86.9893 172.066 92.7374 171.875 95.5792 171.858C95.4147 173.601 95.3887 174.193 95.5695 175.926C94.1427 176.322 80.7286 175.957 78.095 175.983L78.2266 172.262C79.6492 170.253 86.9286 163.155 88.9877 161.182C85.5878 161.255 82.2366 161.124 78.8257 161.336C78.7325 160.19 78.751 158.442 78.7254 157.248Z"/><path fill="white" d="M137.387 156.796C151.119 155.254 148.681 167.003 149.03 176.196C147.276 176.003 146.135 176.037 144.36 176.086C144.382 172.667 144.515 168.711 144.23 165.307C144.081 163.515 143.379 162.36 141.958 161.298C132.961 158.435 135.023 170.812 134.999 176.168C133.524 176.001 131.948 176.05 130.456 176.063C130.875 168.398 128 159.494 137.387 156.796Z"/><path fill="white" d="M72.8284 181.562C75.6659 181.37 76.0314 181.355 78.6251 182.509C78.9311 182.891 79.666 183.875 79.8041 184.265C80.5353 186.329 81.3147 193.984 79.6968 195.445L79.3118 195.307C78.6727 194.279 79.9046 192.985 79.0251 190.972C78.2963 190.341 78.159 190.521 77.0625 190.455C74.6656 190.481 72.448 190.491 70.0508 190.404C70.0693 191.192 70.0767 191.979 70.073 192.767C70.0659 193.501 70.0527 194.521 69.5105 195.054C68.7217 194.305 68.7273 190.783 68.7719 189.691C68.9304 185.82 68.8585 183.08 72.8284 181.562ZM69.9548 189.394L74.9375 189.421C76.3813 189.428 77.8598 189.418 79.2991 189.475C79.1301 185.825 78.9053 182.249 74.0569 182.523C69.905 183.506 70.081 185.59 69.9548 189.394Z"/><path fill="white" d="M117.294 180.119L117.752 180.371C118.279 181.473 118.16 187.297 118.075 188.78C117.905 191.747 117.659 192.897 115.525 194.891C112.404 195.756 110.753 195.748 108.198 193.617C105.644 188.934 107.737 185.795 112.52 184.559C113.965 184.949 115.392 185.614 116.817 186.164L117.019 185.993C116.664 184.563 116.86 181.53 117.294 180.119ZM113.386 194.335C115.473 193.96 116.977 192.121 116.93 190C116.909 189.078 116.593 188.187 116.028 187.458C115.05 186.197 113.455 185.579 111.883 185.854C109.536 186.264 107.968 188.502 108.384 190.848C108.8 193.193 111.041 194.756 113.386 194.335Z"/><path fill="white" d="M99.1983 184.789C106.621 184.036 106.325 194.35 104.524 195.335C104.354 194.677 104.284 194.164 103.829 193.662C103.01 193.877 103.037 194.118 102.41 194.891L99.9194 195.618C97.6415 195.159 97.1705 194.958 95.3326 193.603C93.5192 189.232 94.4189 186.025 99.1983 184.789ZM96.2303 192.719C98.0811 194.08 98.9692 194.688 101.38 194.207C102.428 193.481 103.03 193.015 103.991 192.174C104.447 187.295 103.15 185.612 98.1627 186.041C95.3702 187.727 95.2333 189.866 96.2303 192.719Z"/><path fill="white" d="M99.4896 157.086C100.736 157.196 102.721 157.146 104.025 157.15C103.798 161.349 104.057 165.9 103.999 170.13C103.975 171.852 104.132 174.139 103.902 175.766L103.517 176.036C102.113 176.018 100.709 176.025 99.3061 176.057C99.6171 171.86 99.1683 166.542 99.3139 162.269C99.3571 160.998 99.1869 158.208 99.4896 157.086Z"/><path fill="white" d="M69.8365 157.184C71.2613 157.14 72.9855 157.198 74.4351 157.207C74.1225 160.538 74.3132 172.637 74.4698 176.156C72.9322 176.064 71.4036 176.067 69.8641 176.057C69.7018 169.89 69.8184 163.38 69.8365 157.184Z"/><path fill="white" d="M124.4 184.819C124.717 184.779 125.036 184.753 125.355 184.74C126.898 184.688 128.346 185.282 129.454 186.345L129.569 186.457C130.35 187.21 130.925 189.147 130.632 190.176C128.586 191.734 122.041 188.867 121.278 191.335C122.038 194.486 124.857 194.597 127.468 194.004C128.816 192.915 129.438 192.437 130.936 191.585C129.227 194.684 126.241 196.753 122.764 194.847C121.477 194.138 120.53 192.941 120.135 191.526C119.158 188.051 121.106 185.638 124.4 184.819ZM120.73 189.339C122.716 189.379 124.702 189.406 126.687 189.42C127.546 189.463 128.56 189.649 129.198 189.132C129.365 188.741 129.541 188.489 129.284 188.108C127.849 185.976 125.755 185.861 123.709 186.028C122.027 187.061 121.743 187.629 120.73 189.339Z"/><path fill="white" d="M135.891 184.758C137.962 184.5 138.859 185.328 140.337 186.548C141.053 186.648 140.96 185.927 141.691 185.471C142.298 185.093 143.531 184.813 144.233 184.624C147.591 185.506 148.132 186.86 148.388 190.409C148.471 191.565 148.473 194.566 147.681 195.424L147.391 195.361C146.651 193.408 148.035 189.519 146.339 187.234C144.075 184.183 141.722 185.772 141.043 189.001C141.036 190.15 141.434 194.888 140.358 195.525C139.588 193.56 140.91 185.815 137.441 185.68C131.339 185.442 135.39 193.539 133.267 195.423L132.919 195.103C132.36 193.212 132.514 188.568 133.408 186.683C134.019 185.394 134.657 185.204 135.891 184.758Z"/><path fill="white" d="M86.9959 184.768C89.2112 184.501 92.3584 185.801 92.7919 188.157L92.4227 188.435C91.3839 188.297 90.6652 186.434 89.2418 186.046C85.7605 185.097 84.3448 187.075 83.2832 189.894C83.513 190.784 83.9315 191.929 84.2284 192.822C85.9925 194.188 86.8684 194.506 89.0381 194.26C90.4845 193.746 90.6412 192.799 92.6632 191.996L92.826 192.185C92.0908 193.412 91.7336 193.78 90.7572 194.816C90.6633 194.847 90.569 194.876 90.4744 194.903C81.5216 197.535 79.1377 186.82 86.9959 184.768Z"/><path fill="white" d="M100.833 148.868C101.896 148.567 103.04 148.864 103.822 149.645C104.604 150.426 104.903 151.569 104.604 152.633C104.305 153.697 103.453 154.516 102.379 154.775C100.762 155.163 99.1321 154.187 98.7112 152.579C98.2903 150.971 99.2333 149.321 100.833 148.868Z"/><path fill="white" d="M71.2788 148.889C72.8619 148.437 74.5137 149.345 74.9788 150.925C75.4438 152.504 74.5482 154.163 72.9725 154.641C71.379 155.124 69.6971 154.216 69.2267 152.619C68.7563 151.021 69.6778 149.347 71.2788 148.889Z"/><path fill="white" d="M92.0945 0L104.92 0C106.528 0.67577 108.972 0.978921 110.803 1.47088C117.718 3.39193 125.071 6.58612 130.834 10.9085C136.084 14.8469 129.127 17.5725 126.517 19.0476C110.351 28.1838 97.8562 43.7704 93.5468 61.945C91.6779 69.827 91.0721 78.0621 88.5287 85.8284C87.5262 89.0667 85.108 96.4927 82.3978 98.3036C78.1134 101.166 76.6708 86.8699 76.3472 85.1227L73.177 68.1065L67.0205 35.5356C65.7825 29.0412 64.3907 22.543 63.3863 16.0102C63.2268 14.973 62.9155 13.6381 63.3265 12.6344C65.0918 8.32278 79.3733 3.06797 84.0158 1.83763C86.5152 1.17526 89.5804 1.08527 91.9167 0.0790799C91.9763 0.0534264 92.0352 0.02636 92.0945 0Z"/><path fill="white" d="M153.742 200C152.823 199.281 151.384 198.358 150.914 197.412L151.049 196.955C152.882 197.026 159.098 202.915 159.333 194.475L159.084 194.06C157.741 194.115 154.989 197.005 152.186 194.583C150.818 193.4 150.421 190.615 150.508 188.896C150.567 187.734 150.25 185.771 150.934 185.051L151.348 185.1C152.568 188.26 150.366 198.666 158.923 192.932C159.423 190.844 159.29 185.969 160.043 184.995C160.61 185.857 160.719 194.099 160.452 195.723C160.033 198.281 158.878 198.696 157.145 200L153.742 200Z"/></svg>